G04 #@! TF.GenerationSoftware,KiCad,Pcbnew,(5.1.10)-1*
G04 #@! TF.CreationDate,2021-08-13T20:40:32+09:00*
G04 #@! TF.ProjectId,lfmassage,6c666d61-7373-4616-9765-2e6b69636164,rev?*
G04 #@! TF.SameCoordinates,Original*
G04 #@! TF.FileFunction,Soldermask,Bot*
G04 #@! TF.FilePolarity,Negative*
%FSLAX46Y46*%
G04 Gerber Fmt 4.6, Leading zero omitted, Abs format (unit mm)*
G04 Created by KiCad (PCBNEW (5.1.10)-1) date 2021-08-13 20:40:32*
%MOMM*%
%LPD*%
G01*
G04 APERTURE LIST*
%ADD10R,1.600000X1.600000*%
%ADD11C,1.600000*%
%ADD12R,1.700000X1.700000*%
%ADD13O,1.700000X1.700000*%
%ADD14O,2.000000X1.200000*%
%ADD15C,0.600000*%
%ADD16O,1.700000X1.100000*%
G04 APERTURE END LIST*
D10*
X63700000Y-84600000D03*
D11*
X67700000Y-84600000D03*
D12*
X116500000Y-80300000D03*
D13*
X119040000Y-80300000D03*
D14*
X99100000Y-55620000D03*
X73700000Y-55620000D03*
X99100000Y-58160000D03*
X73700000Y-58160000D03*
X99100000Y-60700000D03*
X73700000Y-60700000D03*
X99100000Y-63240000D03*
X73700000Y-63240000D03*
X99100000Y-65780000D03*
X73700000Y-65780000D03*
X99100000Y-68320000D03*
X73700000Y-68320000D03*
X99100000Y-70860000D03*
X73700000Y-70860000D03*
X99100000Y-73400000D03*
X73700000Y-73400000D03*
X99100000Y-75940000D03*
X73700000Y-75940000D03*
X99100000Y-78480000D03*
X73700000Y-78480000D03*
X99100000Y-81020000D03*
X73700000Y-81020000D03*
X99100000Y-83560000D03*
X73700000Y-83560000D03*
X99100000Y-86100000D03*
X73700000Y-86100000D03*
X99100000Y-88640000D03*
X73700000Y-88640000D03*
X99100000Y-91180000D03*
X73700000Y-91180000D03*
D15*
X64300000Y-61900000D03*
X64300000Y-60100000D03*
X64300000Y-65100000D03*
X64300000Y-66900000D03*
X64300000Y-72100000D03*
X64300000Y-70300000D03*
X64300000Y-75200000D03*
X64300000Y-77000000D03*
D16*
X66400000Y-56720000D03*
X66400000Y-48080000D03*
X62600000Y-56720000D03*
X62600000Y-48080000D03*
M02*
