G04 #@! TF.GenerationSoftware,KiCad,Pcbnew,(5.1.10)-1*
G04 #@! TF.CreationDate,2021-08-13T20:40:32+09:00*
G04 #@! TF.ProjectId,lfmassage,6c666d61-7373-4616-9765-2e6b69636164,rev?*
G04 #@! TF.SameCoordinates,Original*
G04 #@! TF.FileFunction,Soldermask,Top*
G04 #@! TF.FilePolarity,Negative*
%FSLAX46Y46*%
G04 Gerber Fmt 4.6, Leading zero omitted, Abs format (unit mm)*
G04 Created by KiCad (PCBNEW (5.1.10)-1) date 2021-08-13 20:40:32*
%MOMM*%
%LPD*%
G01*
G04 APERTURE LIST*
%ADD10R,1.600000X1.600000*%
%ADD11C,1.600000*%
%ADD12R,3.500000X2.300000*%
%ADD13R,2.300000X3.500000*%
%ADD14R,1.700000X1.700000*%
%ADD15O,1.700000X1.700000*%
%ADD16O,2.000000X1.200000*%
%ADD17R,4.750000X14.000000*%
%ADD18R,0.800000X0.900000*%
%ADD19R,0.900000X0.800000*%
%ADD20C,0.600000*%
%ADD21R,1.050000X2.000000*%
%ADD22R,1.200000X0.700000*%
%ADD23R,1.200000X0.760000*%
%ADD24R,1.200000X0.800000*%
%ADD25O,1.700000X1.100000*%
%ADD26R,0.650000X1.060000*%
G04 APERTURE END LIST*
D10*
X63700000Y-84600000D03*
D11*
X67700000Y-84600000D03*
G36*
G01*
X116475000Y-56375000D02*
X116475000Y-55425000D01*
G75*
G02*
X116725000Y-55175000I250000J0D01*
G01*
X117400000Y-55175000D01*
G75*
G02*
X117650000Y-55425000I0J-250000D01*
G01*
X117650000Y-56375000D01*
G75*
G02*
X117400000Y-56625000I-250000J0D01*
G01*
X116725000Y-56625000D01*
G75*
G02*
X116475000Y-56375000I0J250000D01*
G01*
G37*
G36*
G01*
X118550000Y-56375000D02*
X118550000Y-55425000D01*
G75*
G02*
X118800000Y-55175000I250000J0D01*
G01*
X119475000Y-55175000D01*
G75*
G02*
X119725000Y-55425000I0J-250000D01*
G01*
X119725000Y-56375000D01*
G75*
G02*
X119475000Y-56625000I-250000J0D01*
G01*
X118800000Y-56625000D01*
G75*
G02*
X118550000Y-56375000I0J250000D01*
G01*
G37*
G36*
G01*
X68537500Y-60675000D02*
X68062500Y-60675000D01*
G75*
G02*
X67825000Y-60437500I0J237500D01*
G01*
X67825000Y-59837500D01*
G75*
G02*
X68062500Y-59600000I237500J0D01*
G01*
X68537500Y-59600000D01*
G75*
G02*
X68775000Y-59837500I0J-237500D01*
G01*
X68775000Y-60437500D01*
G75*
G02*
X68537500Y-60675000I-237500J0D01*
G01*
G37*
G36*
G01*
X68537500Y-62400000D02*
X68062500Y-62400000D01*
G75*
G02*
X67825000Y-62162500I0J237500D01*
G01*
X67825000Y-61562500D01*
G75*
G02*
X68062500Y-61325000I237500J0D01*
G01*
X68537500Y-61325000D01*
G75*
G02*
X68775000Y-61562500I0J-237500D01*
G01*
X68775000Y-62162500D01*
G75*
G02*
X68537500Y-62400000I-237500J0D01*
G01*
G37*
G36*
G01*
X68537500Y-67500000D02*
X68062500Y-67500000D01*
G75*
G02*
X67825000Y-67262500I0J237500D01*
G01*
X67825000Y-66662500D01*
G75*
G02*
X68062500Y-66425000I237500J0D01*
G01*
X68537500Y-66425000D01*
G75*
G02*
X68775000Y-66662500I0J-237500D01*
G01*
X68775000Y-67262500D01*
G75*
G02*
X68537500Y-67500000I-237500J0D01*
G01*
G37*
G36*
G01*
X68537500Y-65775000D02*
X68062500Y-65775000D01*
G75*
G02*
X67825000Y-65537500I0J237500D01*
G01*
X67825000Y-64937500D01*
G75*
G02*
X68062500Y-64700000I237500J0D01*
G01*
X68537500Y-64700000D01*
G75*
G02*
X68775000Y-64937500I0J-237500D01*
G01*
X68775000Y-65537500D01*
G75*
G02*
X68537500Y-65775000I-237500J0D01*
G01*
G37*
G36*
G01*
X68537500Y-70875000D02*
X68062500Y-70875000D01*
G75*
G02*
X67825000Y-70637500I0J237500D01*
G01*
X67825000Y-70037500D01*
G75*
G02*
X68062500Y-69800000I237500J0D01*
G01*
X68537500Y-69800000D01*
G75*
G02*
X68775000Y-70037500I0J-237500D01*
G01*
X68775000Y-70637500D01*
G75*
G02*
X68537500Y-70875000I-237500J0D01*
G01*
G37*
G36*
G01*
X68537500Y-72600000D02*
X68062500Y-72600000D01*
G75*
G02*
X67825000Y-72362500I0J237500D01*
G01*
X67825000Y-71762500D01*
G75*
G02*
X68062500Y-71525000I237500J0D01*
G01*
X68537500Y-71525000D01*
G75*
G02*
X68775000Y-71762500I0J-237500D01*
G01*
X68775000Y-72362500D01*
G75*
G02*
X68537500Y-72600000I-237500J0D01*
G01*
G37*
G36*
G01*
X68437500Y-77500000D02*
X67962500Y-77500000D01*
G75*
G02*
X67725000Y-77262500I0J237500D01*
G01*
X67725000Y-76662500D01*
G75*
G02*
X67962500Y-76425000I237500J0D01*
G01*
X68437500Y-76425000D01*
G75*
G02*
X68675000Y-76662500I0J-237500D01*
G01*
X68675000Y-77262500D01*
G75*
G02*
X68437500Y-77500000I-237500J0D01*
G01*
G37*
G36*
G01*
X68437500Y-75775000D02*
X67962500Y-75775000D01*
G75*
G02*
X67725000Y-75537500I0J237500D01*
G01*
X67725000Y-74937500D01*
G75*
G02*
X67962500Y-74700000I237500J0D01*
G01*
X68437500Y-74700000D01*
G75*
G02*
X68675000Y-74937500I0J-237500D01*
G01*
X68675000Y-75537500D01*
G75*
G02*
X68437500Y-75775000I-237500J0D01*
G01*
G37*
G36*
G01*
X110262500Y-74700000D02*
X110737500Y-74700000D01*
G75*
G02*
X110975000Y-74937500I0J-237500D01*
G01*
X110975000Y-75537500D01*
G75*
G02*
X110737500Y-75775000I-237500J0D01*
G01*
X110262500Y-75775000D01*
G75*
G02*
X110025000Y-75537500I0J237500D01*
G01*
X110025000Y-74937500D01*
G75*
G02*
X110262500Y-74700000I237500J0D01*
G01*
G37*
G36*
G01*
X110262500Y-76425000D02*
X110737500Y-76425000D01*
G75*
G02*
X110975000Y-76662500I0J-237500D01*
G01*
X110975000Y-77262500D01*
G75*
G02*
X110737500Y-77500000I-237500J0D01*
G01*
X110262500Y-77500000D01*
G75*
G02*
X110025000Y-77262500I0J237500D01*
G01*
X110025000Y-76662500D01*
G75*
G02*
X110262500Y-76425000I237500J0D01*
G01*
G37*
G36*
G01*
X112150000Y-80275000D02*
X112150000Y-79325000D01*
G75*
G02*
X112400000Y-79075000I250000J0D01*
G01*
X113075000Y-79075000D01*
G75*
G02*
X113325000Y-79325000I0J-250000D01*
G01*
X113325000Y-80275000D01*
G75*
G02*
X113075000Y-80525000I-250000J0D01*
G01*
X112400000Y-80525000D01*
G75*
G02*
X112150000Y-80275000I0J250000D01*
G01*
G37*
G36*
G01*
X110075000Y-80275000D02*
X110075000Y-79325000D01*
G75*
G02*
X110325000Y-79075000I250000J0D01*
G01*
X111000000Y-79075000D01*
G75*
G02*
X111250000Y-79325000I0J-250000D01*
G01*
X111250000Y-80275000D01*
G75*
G02*
X111000000Y-80525000I-250000J0D01*
G01*
X110325000Y-80525000D01*
G75*
G02*
X110075000Y-80275000I0J250000D01*
G01*
G37*
D12*
X109500000Y-50100000D03*
X104100000Y-50100000D03*
G36*
G01*
X112300000Y-56350001D02*
X112300000Y-55449999D01*
G75*
G02*
X112549999Y-55200000I249999J0D01*
G01*
X113200001Y-55200000D01*
G75*
G02*
X113450000Y-55449999I0J-249999D01*
G01*
X113450000Y-56350001D01*
G75*
G02*
X113200001Y-56600000I-249999J0D01*
G01*
X112549999Y-56600000D01*
G75*
G02*
X112300000Y-56350001I0J249999D01*
G01*
G37*
G36*
G01*
X114350000Y-56350001D02*
X114350000Y-55449999D01*
G75*
G02*
X114599999Y-55200000I249999J0D01*
G01*
X115250001Y-55200000D01*
G75*
G02*
X115500000Y-55449999I0J-249999D01*
G01*
X115500000Y-56350001D01*
G75*
G02*
X115250001Y-56600000I-249999J0D01*
G01*
X114599999Y-56600000D01*
G75*
G02*
X114350000Y-56350001I0J249999D01*
G01*
G37*
X68600000Y-92200000D03*
X63200000Y-92200000D03*
D13*
X105700000Y-81500000D03*
X105700000Y-76100000D03*
G36*
G01*
X118025000Y-52200000D02*
X118025000Y-53400000D01*
G75*
G02*
X117825000Y-53600000I-200000J0D01*
G01*
X117425000Y-53600000D01*
G75*
G02*
X117225000Y-53400000I0J200000D01*
G01*
X117225000Y-52200000D01*
G75*
G02*
X117425000Y-52000000I200000J0D01*
G01*
X117825000Y-52000000D01*
G75*
G02*
X118025000Y-52200000I0J-200000D01*
G01*
G37*
G36*
G01*
X116775000Y-52200000D02*
X116775000Y-53400000D01*
G75*
G02*
X116575000Y-53600000I-200000J0D01*
G01*
X116175000Y-53600000D01*
G75*
G02*
X115975000Y-53400000I0J200000D01*
G01*
X115975000Y-52200000D01*
G75*
G02*
X116175000Y-52000000I200000J0D01*
G01*
X116575000Y-52000000D01*
G75*
G02*
X116775000Y-52200000I0J-200000D01*
G01*
G37*
G36*
G01*
X121225000Y-48649999D02*
X121225000Y-51150001D01*
G75*
G02*
X120975001Y-51400000I-249999J0D01*
G01*
X119374999Y-51400000D01*
G75*
G02*
X119125000Y-51150001I0J249999D01*
G01*
X119125000Y-48649999D01*
G75*
G02*
X119374999Y-48400000I249999J0D01*
G01*
X120975001Y-48400000D01*
G75*
G02*
X121225000Y-48649999I0J-249999D01*
G01*
G37*
G36*
G01*
X114875000Y-48649999D02*
X114875000Y-51150001D01*
G75*
G02*
X114625001Y-51400000I-249999J0D01*
G01*
X113024999Y-51400000D01*
G75*
G02*
X112775000Y-51150001I0J249999D01*
G01*
X112775000Y-48649999D01*
G75*
G02*
X113024999Y-48400000I249999J0D01*
G01*
X114625001Y-48400000D01*
G75*
G02*
X114875000Y-48649999I0J-249999D01*
G01*
G37*
D14*
X116500000Y-80300000D03*
D15*
X119040000Y-80300000D03*
D16*
X99100000Y-55620000D03*
X73700000Y-55620000D03*
X99100000Y-58160000D03*
X73700000Y-58160000D03*
X99100000Y-60700000D03*
X73700000Y-60700000D03*
X99100000Y-63240000D03*
X73700000Y-63240000D03*
X99100000Y-65780000D03*
X73700000Y-65780000D03*
X99100000Y-68320000D03*
X73700000Y-68320000D03*
X99100000Y-70860000D03*
X73700000Y-70860000D03*
X99100000Y-73400000D03*
X73700000Y-73400000D03*
X99100000Y-75940000D03*
X73700000Y-75940000D03*
X99100000Y-78480000D03*
X73700000Y-78480000D03*
X99100000Y-81020000D03*
X73700000Y-81020000D03*
X99100000Y-83560000D03*
X73700000Y-83560000D03*
X99100000Y-86100000D03*
X73700000Y-86100000D03*
X99100000Y-88640000D03*
X73700000Y-88640000D03*
X99100000Y-91180000D03*
X73700000Y-91180000D03*
D17*
X116225000Y-66000000D03*
X106975000Y-66000000D03*
D18*
X65750000Y-97600000D03*
X67650000Y-97600000D03*
X66700000Y-95600000D03*
D19*
X108100000Y-85750000D03*
X108100000Y-87650000D03*
X110100000Y-86700000D03*
X115100000Y-86700000D03*
X113100000Y-87650000D03*
X113100000Y-85750000D03*
X110100000Y-91300000D03*
X108100000Y-92250000D03*
X108100000Y-90350000D03*
X113100000Y-90350000D03*
X113100000Y-92250000D03*
X115100000Y-91300000D03*
D18*
X111600000Y-95900000D03*
X112550000Y-97900000D03*
X110650000Y-97900000D03*
X115350000Y-97900000D03*
X117250000Y-97900000D03*
X116300000Y-95900000D03*
D19*
X112900000Y-76100000D03*
X114900000Y-75150000D03*
X114900000Y-77050000D03*
G36*
G01*
X105525000Y-55737500D02*
X105525000Y-55262500D01*
G75*
G02*
X105762500Y-55025000I237500J0D01*
G01*
X106262500Y-55025000D01*
G75*
G02*
X106500000Y-55262500I0J-237500D01*
G01*
X106500000Y-55737500D01*
G75*
G02*
X106262500Y-55975000I-237500J0D01*
G01*
X105762500Y-55975000D01*
G75*
G02*
X105525000Y-55737500I0J237500D01*
G01*
G37*
G36*
G01*
X103700000Y-55737500D02*
X103700000Y-55262500D01*
G75*
G02*
X103937500Y-55025000I237500J0D01*
G01*
X104437500Y-55025000D01*
G75*
G02*
X104675000Y-55262500I0J-237500D01*
G01*
X104675000Y-55737500D01*
G75*
G02*
X104437500Y-55975000I-237500J0D01*
G01*
X103937500Y-55975000D01*
G75*
G02*
X103700000Y-55737500I0J237500D01*
G01*
G37*
G36*
G01*
X103700000Y-53737500D02*
X103700000Y-53262500D01*
G75*
G02*
X103937500Y-53025000I237500J0D01*
G01*
X104437500Y-53025000D01*
G75*
G02*
X104675000Y-53262500I0J-237500D01*
G01*
X104675000Y-53737500D01*
G75*
G02*
X104437500Y-53975000I-237500J0D01*
G01*
X103937500Y-53975000D01*
G75*
G02*
X103700000Y-53737500I0J237500D01*
G01*
G37*
G36*
G01*
X105525000Y-53737500D02*
X105525000Y-53262500D01*
G75*
G02*
X105762500Y-53025000I237500J0D01*
G01*
X106262500Y-53025000D01*
G75*
G02*
X106500000Y-53262500I0J-237500D01*
G01*
X106500000Y-53737500D01*
G75*
G02*
X106262500Y-53975000I-237500J0D01*
G01*
X105762500Y-53975000D01*
G75*
G02*
X105525000Y-53737500I0J237500D01*
G01*
G37*
G36*
G01*
X70237500Y-62400000D02*
X69762500Y-62400000D01*
G75*
G02*
X69525000Y-62162500I0J237500D01*
G01*
X69525000Y-61662500D01*
G75*
G02*
X69762500Y-61425000I237500J0D01*
G01*
X70237500Y-61425000D01*
G75*
G02*
X70475000Y-61662500I0J-237500D01*
G01*
X70475000Y-62162500D01*
G75*
G02*
X70237500Y-62400000I-237500J0D01*
G01*
G37*
G36*
G01*
X70237500Y-60575000D02*
X69762500Y-60575000D01*
G75*
G02*
X69525000Y-60337500I0J237500D01*
G01*
X69525000Y-59837500D01*
G75*
G02*
X69762500Y-59600000I237500J0D01*
G01*
X70237500Y-59600000D01*
G75*
G02*
X70475000Y-59837500I0J-237500D01*
G01*
X70475000Y-60337500D01*
G75*
G02*
X70237500Y-60575000I-237500J0D01*
G01*
G37*
G36*
G01*
X70237500Y-67500000D02*
X69762500Y-67500000D01*
G75*
G02*
X69525000Y-67262500I0J237500D01*
G01*
X69525000Y-66762500D01*
G75*
G02*
X69762500Y-66525000I237500J0D01*
G01*
X70237500Y-66525000D01*
G75*
G02*
X70475000Y-66762500I0J-237500D01*
G01*
X70475000Y-67262500D01*
G75*
G02*
X70237500Y-67500000I-237500J0D01*
G01*
G37*
G36*
G01*
X70237500Y-65675000D02*
X69762500Y-65675000D01*
G75*
G02*
X69525000Y-65437500I0J237500D01*
G01*
X69525000Y-64937500D01*
G75*
G02*
X69762500Y-64700000I237500J0D01*
G01*
X70237500Y-64700000D01*
G75*
G02*
X70475000Y-64937500I0J-237500D01*
G01*
X70475000Y-65437500D01*
G75*
G02*
X70237500Y-65675000I-237500J0D01*
G01*
G37*
G36*
G01*
X70337500Y-70775000D02*
X69862500Y-70775000D01*
G75*
G02*
X69625000Y-70537500I0J237500D01*
G01*
X69625000Y-70037500D01*
G75*
G02*
X69862500Y-69800000I237500J0D01*
G01*
X70337500Y-69800000D01*
G75*
G02*
X70575000Y-70037500I0J-237500D01*
G01*
X70575000Y-70537500D01*
G75*
G02*
X70337500Y-70775000I-237500J0D01*
G01*
G37*
G36*
G01*
X70337500Y-72600000D02*
X69862500Y-72600000D01*
G75*
G02*
X69625000Y-72362500I0J237500D01*
G01*
X69625000Y-71862500D01*
G75*
G02*
X69862500Y-71625000I237500J0D01*
G01*
X70337500Y-71625000D01*
G75*
G02*
X70575000Y-71862500I0J-237500D01*
G01*
X70575000Y-72362500D01*
G75*
G02*
X70337500Y-72600000I-237500J0D01*
G01*
G37*
G36*
G01*
X70337500Y-75675000D02*
X69862500Y-75675000D01*
G75*
G02*
X69625000Y-75437500I0J237500D01*
G01*
X69625000Y-74937500D01*
G75*
G02*
X69862500Y-74700000I237500J0D01*
G01*
X70337500Y-74700000D01*
G75*
G02*
X70575000Y-74937500I0J-237500D01*
G01*
X70575000Y-75437500D01*
G75*
G02*
X70337500Y-75675000I-237500J0D01*
G01*
G37*
G36*
G01*
X70337500Y-77500000D02*
X69862500Y-77500000D01*
G75*
G02*
X69625000Y-77262500I0J237500D01*
G01*
X69625000Y-76762500D01*
G75*
G02*
X69862500Y-76525000I237500J0D01*
G01*
X70337500Y-76525000D01*
G75*
G02*
X70575000Y-76762500I0J-237500D01*
G01*
X70575000Y-77262500D01*
G75*
G02*
X70337500Y-77500000I-237500J0D01*
G01*
G37*
G36*
G01*
X69837500Y-96175000D02*
X69362500Y-96175000D01*
G75*
G02*
X69125000Y-95937500I0J237500D01*
G01*
X69125000Y-95437500D01*
G75*
G02*
X69362500Y-95200000I237500J0D01*
G01*
X69837500Y-95200000D01*
G75*
G02*
X70075000Y-95437500I0J-237500D01*
G01*
X70075000Y-95937500D01*
G75*
G02*
X69837500Y-96175000I-237500J0D01*
G01*
G37*
G36*
G01*
X69837500Y-98000000D02*
X69362500Y-98000000D01*
G75*
G02*
X69125000Y-97762500I0J237500D01*
G01*
X69125000Y-97262500D01*
G75*
G02*
X69362500Y-97025000I237500J0D01*
G01*
X69837500Y-97025000D01*
G75*
G02*
X70075000Y-97262500I0J-237500D01*
G01*
X70075000Y-97762500D01*
G75*
G02*
X69837500Y-98000000I-237500J0D01*
G01*
G37*
G36*
G01*
X110100000Y-82337500D02*
X110100000Y-81862500D01*
G75*
G02*
X110337500Y-81625000I237500J0D01*
G01*
X110837500Y-81625000D01*
G75*
G02*
X111075000Y-81862500I0J-237500D01*
G01*
X111075000Y-82337500D01*
G75*
G02*
X110837500Y-82575000I-237500J0D01*
G01*
X110337500Y-82575000D01*
G75*
G02*
X110100000Y-82337500I0J237500D01*
G01*
G37*
G36*
G01*
X111925000Y-82337500D02*
X111925000Y-81862500D01*
G75*
G02*
X112162500Y-81625000I237500J0D01*
G01*
X112662500Y-81625000D01*
G75*
G02*
X112900000Y-81862500I0J-237500D01*
G01*
X112900000Y-82337500D01*
G75*
G02*
X112662500Y-82575000I-237500J0D01*
G01*
X112162500Y-82575000D01*
G75*
G02*
X111925000Y-82337500I0J237500D01*
G01*
G37*
G36*
G01*
X103575000Y-85462500D02*
X103575000Y-85937500D01*
G75*
G02*
X103337500Y-86175000I-237500J0D01*
G01*
X102837500Y-86175000D01*
G75*
G02*
X102600000Y-85937500I0J237500D01*
G01*
X102600000Y-85462500D01*
G75*
G02*
X102837500Y-85225000I237500J0D01*
G01*
X103337500Y-85225000D01*
G75*
G02*
X103575000Y-85462500I0J-237500D01*
G01*
G37*
G36*
G01*
X105400000Y-85462500D02*
X105400000Y-85937500D01*
G75*
G02*
X105162500Y-86175000I-237500J0D01*
G01*
X104662500Y-86175000D01*
G75*
G02*
X104425000Y-85937500I0J237500D01*
G01*
X104425000Y-85462500D01*
G75*
G02*
X104662500Y-85225000I237500J0D01*
G01*
X105162500Y-85225000D01*
G75*
G02*
X105400000Y-85462500I0J-237500D01*
G01*
G37*
G36*
G01*
X117600000Y-84737500D02*
X117600000Y-84262500D01*
G75*
G02*
X117837500Y-84025000I237500J0D01*
G01*
X118337500Y-84025000D01*
G75*
G02*
X118575000Y-84262500I0J-237500D01*
G01*
X118575000Y-84737500D01*
G75*
G02*
X118337500Y-84975000I-237500J0D01*
G01*
X117837500Y-84975000D01*
G75*
G02*
X117600000Y-84737500I0J237500D01*
G01*
G37*
G36*
G01*
X119425000Y-84737500D02*
X119425000Y-84262500D01*
G75*
G02*
X119662500Y-84025000I237500J0D01*
G01*
X120162500Y-84025000D01*
G75*
G02*
X120400000Y-84262500I0J-237500D01*
G01*
X120400000Y-84737500D01*
G75*
G02*
X120162500Y-84975000I-237500J0D01*
G01*
X119662500Y-84975000D01*
G75*
G02*
X119425000Y-84737500I0J237500D01*
G01*
G37*
G36*
G01*
X105400000Y-88462500D02*
X105400000Y-88937500D01*
G75*
G02*
X105162500Y-89175000I-237500J0D01*
G01*
X104662500Y-89175000D01*
G75*
G02*
X104425000Y-88937500I0J237500D01*
G01*
X104425000Y-88462500D01*
G75*
G02*
X104662500Y-88225000I237500J0D01*
G01*
X105162500Y-88225000D01*
G75*
G02*
X105400000Y-88462500I0J-237500D01*
G01*
G37*
G36*
G01*
X103575000Y-88462500D02*
X103575000Y-88937500D01*
G75*
G02*
X103337500Y-89175000I-237500J0D01*
G01*
X102837500Y-89175000D01*
G75*
G02*
X102600000Y-88937500I0J237500D01*
G01*
X102600000Y-88462500D01*
G75*
G02*
X102837500Y-88225000I237500J0D01*
G01*
X103337500Y-88225000D01*
G75*
G02*
X103575000Y-88462500I0J-237500D01*
G01*
G37*
G36*
G01*
X119425000Y-88437500D02*
X119425000Y-87962500D01*
G75*
G02*
X119662500Y-87725000I237500J0D01*
G01*
X120162500Y-87725000D01*
G75*
G02*
X120400000Y-87962500I0J-237500D01*
G01*
X120400000Y-88437500D01*
G75*
G02*
X120162500Y-88675000I-237500J0D01*
G01*
X119662500Y-88675000D01*
G75*
G02*
X119425000Y-88437500I0J237500D01*
G01*
G37*
G36*
G01*
X117600000Y-88437500D02*
X117600000Y-87962500D01*
G75*
G02*
X117837500Y-87725000I237500J0D01*
G01*
X118337500Y-87725000D01*
G75*
G02*
X118575000Y-87962500I0J-237500D01*
G01*
X118575000Y-88437500D01*
G75*
G02*
X118337500Y-88675000I-237500J0D01*
G01*
X117837500Y-88675000D01*
G75*
G02*
X117600000Y-88437500I0J237500D01*
G01*
G37*
G36*
G01*
X102600000Y-92037500D02*
X102600000Y-91562500D01*
G75*
G02*
X102837500Y-91325000I237500J0D01*
G01*
X103337500Y-91325000D01*
G75*
G02*
X103575000Y-91562500I0J-237500D01*
G01*
X103575000Y-92037500D01*
G75*
G02*
X103337500Y-92275000I-237500J0D01*
G01*
X102837500Y-92275000D01*
G75*
G02*
X102600000Y-92037500I0J237500D01*
G01*
G37*
G36*
G01*
X104425000Y-92037500D02*
X104425000Y-91562500D01*
G75*
G02*
X104662500Y-91325000I237500J0D01*
G01*
X105162500Y-91325000D01*
G75*
G02*
X105400000Y-91562500I0J-237500D01*
G01*
X105400000Y-92037500D01*
G75*
G02*
X105162500Y-92275000I-237500J0D01*
G01*
X104662500Y-92275000D01*
G75*
G02*
X104425000Y-92037500I0J237500D01*
G01*
G37*
G36*
G01*
X118475000Y-91862500D02*
X118475000Y-92337500D01*
G75*
G02*
X118237500Y-92575000I-237500J0D01*
G01*
X117737500Y-92575000D01*
G75*
G02*
X117500000Y-92337500I0J237500D01*
G01*
X117500000Y-91862500D01*
G75*
G02*
X117737500Y-91625000I237500J0D01*
G01*
X118237500Y-91625000D01*
G75*
G02*
X118475000Y-91862500I0J-237500D01*
G01*
G37*
G36*
G01*
X120300000Y-91862500D02*
X120300000Y-92337500D01*
G75*
G02*
X120062500Y-92575000I-237500J0D01*
G01*
X119562500Y-92575000D01*
G75*
G02*
X119325000Y-92337500I0J237500D01*
G01*
X119325000Y-91862500D01*
G75*
G02*
X119562500Y-91625000I237500J0D01*
G01*
X120062500Y-91625000D01*
G75*
G02*
X120300000Y-91862500I0J-237500D01*
G01*
G37*
G36*
G01*
X105400000Y-97662500D02*
X105400000Y-98137500D01*
G75*
G02*
X105162500Y-98375000I-237500J0D01*
G01*
X104662500Y-98375000D01*
G75*
G02*
X104425000Y-98137500I0J237500D01*
G01*
X104425000Y-97662500D01*
G75*
G02*
X104662500Y-97425000I237500J0D01*
G01*
X105162500Y-97425000D01*
G75*
G02*
X105400000Y-97662500I0J-237500D01*
G01*
G37*
G36*
G01*
X103575000Y-97662500D02*
X103575000Y-98137500D01*
G75*
G02*
X103337500Y-98375000I-237500J0D01*
G01*
X102837500Y-98375000D01*
G75*
G02*
X102600000Y-98137500I0J237500D01*
G01*
X102600000Y-97662500D01*
G75*
G02*
X102837500Y-97425000I237500J0D01*
G01*
X103337500Y-97425000D01*
G75*
G02*
X103575000Y-97662500I0J-237500D01*
G01*
G37*
G36*
G01*
X105400000Y-94662500D02*
X105400000Y-95137500D01*
G75*
G02*
X105162500Y-95375000I-237500J0D01*
G01*
X104662500Y-95375000D01*
G75*
G02*
X104425000Y-95137500I0J237500D01*
G01*
X104425000Y-94662500D01*
G75*
G02*
X104662500Y-94425000I237500J0D01*
G01*
X105162500Y-94425000D01*
G75*
G02*
X105400000Y-94662500I0J-237500D01*
G01*
G37*
G36*
G01*
X103575000Y-94662500D02*
X103575000Y-95137500D01*
G75*
G02*
X103337500Y-95375000I-237500J0D01*
G01*
X102837500Y-95375000D01*
G75*
G02*
X102600000Y-95137500I0J237500D01*
G01*
X102600000Y-94662500D01*
G75*
G02*
X102837500Y-94425000I237500J0D01*
G01*
X103337500Y-94425000D01*
G75*
G02*
X103575000Y-94662500I0J-237500D01*
G01*
G37*
G36*
G01*
X117337500Y-75675000D02*
X116862500Y-75675000D01*
G75*
G02*
X116625000Y-75437500I0J237500D01*
G01*
X116625000Y-74937500D01*
G75*
G02*
X116862500Y-74700000I237500J0D01*
G01*
X117337500Y-74700000D01*
G75*
G02*
X117575000Y-74937500I0J-237500D01*
G01*
X117575000Y-75437500D01*
G75*
G02*
X117337500Y-75675000I-237500J0D01*
G01*
G37*
G36*
G01*
X117337500Y-77500000D02*
X116862500Y-77500000D01*
G75*
G02*
X116625000Y-77262500I0J237500D01*
G01*
X116625000Y-76762500D01*
G75*
G02*
X116862500Y-76525000I237500J0D01*
G01*
X117337500Y-76525000D01*
G75*
G02*
X117575000Y-76762500I0J-237500D01*
G01*
X117575000Y-77262500D01*
G75*
G02*
X117337500Y-77500000I-237500J0D01*
G01*
G37*
D20*
X64300000Y-61900000D03*
X64300000Y-60100000D03*
D21*
X66525000Y-61000000D03*
X62075000Y-61000000D03*
X62075000Y-66000000D03*
X66525000Y-66000000D03*
D20*
X64300000Y-65100000D03*
X64300000Y-66900000D03*
X64300000Y-72100000D03*
X64300000Y-70300000D03*
D21*
X66525000Y-71200000D03*
X62075000Y-71200000D03*
X62075000Y-76100000D03*
X66525000Y-76100000D03*
D20*
X64300000Y-75200000D03*
X64300000Y-77000000D03*
D22*
X66550000Y-51900000D03*
X66550000Y-52900000D03*
D23*
X66550000Y-50880000D03*
X66550000Y-53920000D03*
D24*
X66550000Y-49650000D03*
X66550000Y-55150000D03*
D25*
X66400000Y-56720000D03*
X66400000Y-48080000D03*
X62600000Y-56720000D03*
X62600000Y-48080000D03*
D26*
X108350000Y-55700000D03*
X109300000Y-55700000D03*
X110250000Y-55700000D03*
X110250000Y-53500000D03*
X108350000Y-53500000D03*
M02*
