M48
; DRILL file {KiCad (5.1.10)-1} date 08/13/21 20:40:36
; FORMAT={-:-/ absolute / inch / decimal}
; #@! TF.CreationDate,2021-08-13T20:40:36+09:00
; #@! TF.GenerationSoftware,Kicad,Pcbnew,(5.1.10)-1
; #@! TF.FileFunction,Plated,1,2,PTH
FMAT,2
INCH
T1C0.0157
T2C0.0236
T3C0.0315
T4C0.0354
T5C0.0394
%
G90
G05
T1
X2.4449Y-2.2992
X3.6811Y-3.7323
X3.9134Y-3.7323
X4.0945Y-3.5551
X4.1024Y-3.6732
X4.1614Y-2.248
X4.1929Y-3.437
X4.2008Y-3.6063
X4.3937Y-3.4134
X4.3937Y-3.7264
X4.4016Y-3.6024
X4.4094Y-2.2598
X4.4252Y-3.2953
X4.5459Y-3.7264
X4.5866Y-3.4134
X4.6496Y-3.5433
X4.6654Y-2.9606
T3
X2.9016Y-2.1898
X2.9016Y-2.2898
X2.9016Y-2.3898
X2.9016Y-2.4898
X2.9016Y-2.5898
X2.9016Y-2.6898
X2.9016Y-2.7898
X2.9016Y-2.8898
X2.9016Y-2.9898
X2.9016Y-3.0898
X2.9016Y-3.1898
X2.9016Y-3.2898
X2.9016Y-3.3898
X2.9016Y-3.4898
X2.9016Y-3.5898
X3.9016Y-2.1898
X3.9016Y-2.2898
X3.9016Y-2.3898
X3.9016Y-2.4898
X3.9016Y-2.5898
X3.9016Y-2.6898
X3.9016Y-2.7898
X3.9016Y-2.8898
X3.9016Y-2.9898
X3.9016Y-3.0898
X3.9016Y-3.1898
X3.9016Y-3.2898
X3.9016Y-3.3898
X3.9016Y-3.4898
X3.9016Y-3.5898
T4
X2.5079Y-3.3307
X2.6654Y-3.3307
T5
X4.5866Y-3.1614
X4.6866Y-3.1614
T2
G00X2.4764Y-1.8929
M15
G01X2.4528Y-1.8929
M16
G05
G00X2.4764Y-2.2331
M15
G01X2.4528Y-2.2331
M16
G05
G00X2.626Y-1.8929
M15
G01X2.6024Y-1.8929
M16
G05
G00X2.626Y-2.2331
M15
G01X2.6024Y-2.2331
M16
G05
T0
M30
